<?xml version="1.0" encoding="utf-8" standalone="no"?>
<!DOCTYPE svg PUBLIC "-//W3C//DTD SVG 1.1//EN"
  "http://www.w3.org/Graphics/SVG/1.1/DTD/svg11.dtd">
<svg xmlns:xlink="http://www.w3.org/1999/xlink" width="205.573933pt" height="212.51625pt" viewBox="0 0 205.573933 212.51625" xmlns="http://www.w3.org/2000/svg" version="1.1">
 <metadata>
  <rdf:RDF xmlns:dc="http://purl.org/dc/elements/1.1/" xmlns:cc="http://creativecommons.org/ns#" xmlns:rdf="http://www.w3.org/1999/02/22-rdf-syntax-ns#">
   <cc:Work>
    <dc:type rdf:resource="http://purl.org/dc/dcmitype/StillImage"/>
    <dc:date>2023-10-07T16:19:53.999106</dc:date>
    <dc:format>image/svg+xml</dc:format>
    <dc:creator>
     <cc:Agent>
      <dc:title>Matplotlib v3.7.2, https://matplotlib.org/</dc:title>
     </cc:Agent>
    </dc:creator>
   </cc:Work>
  </rdf:RDF>
 </metadata>
 <defs>
  <style type="text/css">*{stroke-linejoin: round; stroke-linecap: butt}</style>
 </defs>
 <g id="figure_1">
  <g id="patch_1">
   <path d="M 0 212.51625 
L 205.573933 212.51625 
L 205.573933 0 
L 0 0 
z
" style="fill: #ffffff"/>
  </g>
  <g id="axes_1">
   <g id="patch_2">
    <path d="M 28.942187 188.638125 
L 196.342187 188.638125 
L 196.342187 22.318125 
L 28.942187 22.318125 
z
" style="fill: #ffffff"/>
   </g>
   <g id="PathCollection_1">
    <defs>
     <path id="C0_0_5a7d8e3962" d="M 0 3 
C 0.795609 3 1.55874 2.683901 2.12132 2.12132 
C 2.683901 1.55874 3 0.795609 3 -0 
C 3 -0.795609 2.683901 -1.55874 2.12132 -2.12132 
C 1.55874 -2.683901 0.795609 -3 0 -3 
C -0.795609 -3 -1.55874 -2.683901 -2.12132 -2.12132 
C -2.683901 -1.55874 -3 -0.795609 -3 0 
C -3 0.795609 -2.683901 1.55874 -2.12132 2.12132 
C -1.55874 2.683901 -0.795609 3 0 3 
z
"/>
    </defs>
    <g clip-path="url(#p1edb94297c)">
     <use xlink:href="#C0_0_5a7d8e3962" x="129.48817" y="92.104369" style="fill: #ff0000; stroke: #ff0000"/>
    </g>
    <g clip-path="url(#p1edb94297c)">
     <use xlink:href="#C0_0_5a7d8e3962" x="93.579504" y="128.290803" style="fill: #0000ff; stroke: #0000ff"/>
    </g>
    <g clip-path="url(#p1edb94297c)">
     <use xlink:href="#C0_0_5a7d8e3962" x="129.476527" y="140.493055" style="fill: #0000ff; stroke: #0000ff"/>
    </g>
    <g clip-path="url(#p1edb94297c)">
     <use xlink:href="#C0_0_5a7d8e3962" x="130.486332" y="83.873056" style="fill: #ff0000; stroke: #ff0000"/>
    </g>
    <g clip-path="url(#p1edb94297c)">
     <use xlink:href="#C0_0_5a7d8e3962" x="117.325426" y="71.207997" style="fill: #ff0000; stroke: #ff0000"/>
    </g>
    <g clip-path="url(#p1edb94297c)">
     <use xlink:href="#C0_0_5a7d8e3962" x="69.709955" y="98.620879" style="fill: #0000ff; stroke: #0000ff"/>
    </g>
    <g clip-path="url(#p1edb94297c)">
     <use xlink:href="#C0_0_5a7d8e3962" x="82.134166" y="104.174343" style="fill: #0000ff; stroke: #0000ff"/>
    </g>
    <g clip-path="url(#p1edb94297c)">
     <use xlink:href="#C0_0_5a7d8e3962" x="87.929531" y="127.007051" style="fill: #0000ff; stroke: #0000ff"/>
    </g>
    <g clip-path="url(#p1edb94297c)">
     <use xlink:href="#C0_0_5a7d8e3962" x="79.213841" y="72.995536" style="fill: #ff0000; stroke: #ff0000"/>
    </g>
    <g clip-path="url(#p1edb94297c)">
     <use xlink:href="#C0_0_5a7d8e3962" x="75.051716" y="145.092475" style="fill: #0000ff; stroke: #0000ff"/>
    </g>
    <g clip-path="url(#p1edb94297c)">
     <use xlink:href="#C0_0_5a7d8e3962" x="87.379695" y="129.717746" style="fill: #0000ff; stroke: #0000ff"/>
    </g>
    <g clip-path="url(#p1edb94297c)">
     <use xlink:href="#C0_0_5a7d8e3962" x="75.045098" y="79.19734" style="fill: #ff0000; stroke: #ff0000"/>
    </g>
    <g clip-path="url(#p1edb94297c)">
     <use xlink:href="#C0_0_5a7d8e3962" x="126.999349" y="100.884998" style="fill: #0000ff; stroke: #0000ff"/>
    </g>
    <g clip-path="url(#p1edb94297c)">
     <use xlink:href="#C0_0_5a7d8e3962" x="125.272624" y="122.077634" style="fill: #ff0000; stroke: #ff0000"/>
    </g>
    <g clip-path="url(#p1edb94297c)">
     <use xlink:href="#C0_0_5a7d8e3962" x="113.569187" y="115.558024" style="fill: #0000ff; stroke: #0000ff"/>
    </g>
    <g clip-path="url(#p1edb94297c)">
     <use xlink:href="#C0_0_5a7d8e3962" x="139.714829" y="110.147997" style="fill: #ff0000; stroke: #ff0000"/>
    </g>
    <g clip-path="url(#p1edb94297c)">
     <use xlink:href="#C0_0_5a7d8e3962" x="136.637524" y="112.629599" style="fill: #ff0000; stroke: #ff0000"/>
    </g>
    <g clip-path="url(#p1edb94297c)">
     <use xlink:href="#C0_0_5a7d8e3962" x="114.340381" y="107.925407" style="fill: #ff0000; stroke: #ff0000"/>
    </g>
    <g clip-path="url(#p1edb94297c)">
     <use xlink:href="#C0_0_5a7d8e3962" x="145.329054" y="29.878125" style="fill: #ff0000; stroke: #ff0000"/>
    </g>
    <g clip-path="url(#p1edb94297c)">
     <use xlink:href="#C0_0_5a7d8e3962" x="59.089645" y="110.488424" style="fill: #0000ff; stroke: #0000ff"/>
    </g>
    <g clip-path="url(#p1edb94297c)">
     <use xlink:href="#C0_0_5a7d8e3962" x="90.973355" y="118.398798" style="fill: #0000ff; stroke: #0000ff"/>
    </g>
    <g clip-path="url(#p1edb94297c)">
     <use xlink:href="#C0_0_5a7d8e3962" x="121.238541" y="174.717707" style="fill: #0000ff; stroke: #0000ff"/>
    </g>
    <g clip-path="url(#p1edb94297c)">
     <use xlink:href="#C0_0_5a7d8e3962" x="80.111064" y="64.753593" style="fill: #ff0000; stroke: #ff0000"/>
    </g>
    <g clip-path="url(#p1edb94297c)">
     <use xlink:href="#C0_0_5a7d8e3962" x="84.069132" y="109.632425" style="fill: #0000ff; stroke: #0000ff"/>
    </g>
    <g clip-path="url(#p1edb94297c)">
     <use xlink:href="#C0_0_5a7d8e3962" x="126.81546" y="71.861479" style="fill: #ff0000; stroke: #ff0000"/>
    </g>
    <g clip-path="url(#p1edb94297c)">
     <use xlink:href="#C0_0_5a7d8e3962" x="46.560707" y="90.275091" style="fill: #0000ff; stroke: #0000ff"/>
    </g>
    <g clip-path="url(#p1edb94297c)">
     <use xlink:href="#C0_0_5a7d8e3962" x="111.608401" y="80.392039" style="fill: #0000ff; stroke: #0000ff"/>
    </g>
    <g clip-path="url(#p1edb94297c)">
     <use xlink:href="#C0_0_5a7d8e3962" x="59.072632" y="120.770265" style="fill: #0000ff; stroke: #0000ff"/>
    </g>
    <g clip-path="url(#p1edb94297c)">
     <use xlink:href="#C0_0_5a7d8e3962" x="104.883666" y="138.451617" style="fill: #0000ff; stroke: #0000ff"/>
    </g>
    <g clip-path="url(#p1edb94297c)">
     <use xlink:href="#C0_0_5a7d8e3962" x="85.337693" y="100.358902" style="fill: #0000ff; stroke: #0000ff"/>
    </g>
    <g clip-path="url(#p1edb94297c)">
     <use xlink:href="#C0_0_5a7d8e3962" x="127.919073" y="90.14016" style="fill: #ff0000; stroke: #ff0000"/>
    </g>
    <g clip-path="url(#p1edb94297c)">
     <use xlink:href="#C0_0_5a7d8e3962" x="140.37705" y="67.729199" style="fill: #ff0000; stroke: #ff0000"/>
    </g>
    <g clip-path="url(#p1edb94297c)">
     <use xlink:href="#C0_0_5a7d8e3962" x="134.262421" y="130.38142" style="fill: #ff0000; stroke: #ff0000"/>
    </g>
    <g clip-path="url(#p1edb94297c)">
     <use xlink:href="#C0_0_5a7d8e3962" x="84.19601" y="65.098496" style="fill: #0000ff; stroke: #0000ff"/>
    </g>
    <g clip-path="url(#p1edb94297c)">
     <use xlink:href="#C0_0_5a7d8e3962" x="99.989593" y="113.77117" style="fill: #ff0000; stroke: #ff0000"/>
    </g>
    <g clip-path="url(#p1edb94297c)">
     <use xlink:href="#C0_0_5a7d8e3962" x="68.612844" y="119.287873" style="fill: #0000ff; stroke: #0000ff"/>
    </g>
    <g clip-path="url(#p1edb94297c)">
     <use xlink:href="#C0_0_5a7d8e3962" x="60.916152" y="54.930466" style="fill: #ff0000; stroke: #ff0000"/>
    </g>
    <g clip-path="url(#p1edb94297c)">
     <use xlink:href="#C0_0_5a7d8e3962" x="73.60818" y="143.56662" style="fill: #0000ff; stroke: #0000ff"/>
    </g>
    <g clip-path="url(#p1edb94297c)">
     <use xlink:href="#C0_0_5a7d8e3962" x="56.64959" y="87.425673" style="fill: #0000ff; stroke: #0000ff"/>
    </g>
    <g clip-path="url(#p1edb94297c)">
     <use xlink:href="#C0_0_5a7d8e3962" x="72.154096" y="125.726201" style="fill: #0000ff; stroke: #0000ff"/>
    </g>
    <g clip-path="url(#p1edb94297c)">
     <use xlink:href="#C0_0_5a7d8e3962" x="143.799513" y="81.874996" style="fill: #ff0000; stroke: #ff0000"/>
    </g>
    <g clip-path="url(#p1edb94297c)">
     <use xlink:href="#C0_0_5a7d8e3962" x="132.609295" y="76.427537" style="fill: #ff0000; stroke: #ff0000"/>
    </g>
    <g clip-path="url(#p1edb94297c)">
     <use xlink:href="#C0_0_5a7d8e3962" x="147.735816" y="76.727424" style="fill: #ff0000; stroke: #ff0000"/>
    </g>
    <g clip-path="url(#p1edb94297c)">
     <use xlink:href="#C0_0_5a7d8e3962" x="152.17495" y="35.671526" style="fill: #ff0000; stroke: #ff0000"/>
    </g>
    <g clip-path="url(#p1edb94297c)">
     <use xlink:href="#C0_0_5a7d8e3962" x="188.733097" y="94.052338" style="fill: #ff0000; stroke: #ff0000"/>
    </g>
    <g clip-path="url(#p1edb94297c)">
     <use xlink:href="#C0_0_5a7d8e3962" x="86.954746" y="97.114641" style="fill: #0000ff; stroke: #0000ff"/>
    </g>
    <g clip-path="url(#p1edb94297c)">
     <use xlink:href="#C0_0_5a7d8e3962" x="153.856362" y="95.071307" style="fill: #ff0000; stroke: #ff0000"/>
    </g>
    <g clip-path="url(#p1edb94297c)">
     <use xlink:href="#C0_0_5a7d8e3962" x="111.670762" y="149.416801" style="fill: #0000ff; stroke: #0000ff"/>
    </g>
    <g clip-path="url(#p1edb94297c)">
     <use xlink:href="#C0_0_5a7d8e3962" x="138.68884" y="59.982007" style="fill: #ff0000; stroke: #ff0000"/>
    </g>
    <g clip-path="url(#p1edb94297c)">
     <use xlink:href="#C0_0_5a7d8e3962" x="102.028399" y="55.23759" style="fill: #ff0000; stroke: #ff0000"/>
    </g>
    <g clip-path="url(#p1edb94297c)">
     <use xlink:href="#C0_0_5a7d8e3962" x="83.152002" y="83.03831" style="fill: #ff0000; stroke: #ff0000"/>
    </g>
    <g clip-path="url(#p1edb94297c)">
     <use xlink:href="#C0_0_5a7d8e3962" x="170.559449" y="58.226828" style="fill: #ff0000; stroke: #ff0000"/>
    </g>
    <g clip-path="url(#p1edb94297c)">
     <use xlink:href="#C0_0_5a7d8e3962" x="72.54556" y="104.980071" style="fill: #0000ff; stroke: #0000ff"/>
    </g>
    <g clip-path="url(#p1edb94297c)">
     <use xlink:href="#C0_0_5a7d8e3962" x="46.074327" y="114.260127" style="fill: #0000ff; stroke: #0000ff"/>
    </g>
    <g clip-path="url(#p1edb94297c)">
     <use xlink:href="#C0_0_5a7d8e3962" x="83.296214" y="97.351044" style="fill: #0000ff; stroke: #0000ff"/>
    </g>
    <g clip-path="url(#p1edb94297c)">
     <use xlink:href="#C0_0_5a7d8e3962" x="109.621078" y="90.182071" style="fill: #ff0000; stroke: #ff0000"/>
    </g>
    <g clip-path="url(#p1edb94297c)">
     <use xlink:href="#C0_0_5a7d8e3962" x="96.206575" y="63.748628" style="fill: #ff0000; stroke: #ff0000"/>
    </g>
    <g clip-path="url(#p1edb94297c)">
     <use xlink:href="#C0_0_5a7d8e3962" x="125.966138" y="136.555294" style="fill: #0000ff; stroke: #0000ff"/>
    </g>
    <g clip-path="url(#p1edb94297c)">
     <use xlink:href="#C0_0_5a7d8e3962" x="60.565919" y="102.044642" style="fill: #0000ff; stroke: #0000ff"/>
    </g>
    <g clip-path="url(#p1edb94297c)">
     <use xlink:href="#C0_0_5a7d8e3962" x="92.868148" y="122.427758" style="fill: #0000ff; stroke: #0000ff"/>
    </g>
    <g clip-path="url(#p1edb94297c)">
     <use xlink:href="#C0_0_5a7d8e3962" x="162.48744" y="78.595222" style="fill: #ff0000; stroke: #ff0000"/>
    </g>
    <g clip-path="url(#p1edb94297c)">
     <use xlink:href="#C0_0_5a7d8e3962" x="36.551278" y="133.728374" style="fill: #0000ff; stroke: #0000ff"/>
    </g>
    <g clip-path="url(#p1edb94297c)">
     <use xlink:href="#C0_0_5a7d8e3962" x="123.236296" y="89.427636" style="fill: #ff0000; stroke: #ff0000"/>
    </g>
    <g clip-path="url(#p1edb94297c)">
     <use xlink:href="#C0_0_5a7d8e3962" x="70.82648" y="106.462628" style="fill: #0000ff; stroke: #0000ff"/>
    </g>
    <g clip-path="url(#p1edb94297c)">
     <use xlink:href="#C0_0_5a7d8e3962" x="69.237503" y="130.55574" style="fill: #0000ff; stroke: #0000ff"/>
    </g>
    <g clip-path="url(#p1edb94297c)">
     <use xlink:href="#C0_0_5a7d8e3962" x="80.113273" y="137.220304" style="fill: #0000ff; stroke: #0000ff"/>
    </g>
    <g clip-path="url(#p1edb94297c)">
     <use xlink:href="#C0_0_5a7d8e3962" x="104.905077" y="107.19672" style="fill: #0000ff; stroke: #0000ff"/>
    </g>
    <g clip-path="url(#p1edb94297c)">
     <use xlink:href="#C0_0_5a7d8e3962" x="87.830334" y="173.718067" style="fill: #0000ff; stroke: #0000ff"/>
    </g>
    <g clip-path="url(#p1edb94297c)">
     <use xlink:href="#C0_0_5a7d8e3962" x="58.608532" y="142.706276" style="fill: #0000ff; stroke: #0000ff"/>
    </g>
    <g clip-path="url(#p1edb94297c)">
     <use xlink:href="#C0_0_5a7d8e3962" x="131.45657" y="81.158239" style="fill: #ff0000; stroke: #ff0000"/>
    </g>
    <g clip-path="url(#p1edb94297c)">
     <use xlink:href="#C0_0_5a7d8e3962" x="56.860553" y="75.843333" style="fill: #0000ff; stroke: #0000ff"/>
    </g>
    <g clip-path="url(#p1edb94297c)">
     <use xlink:href="#C0_0_5a7d8e3962" x="45.33977" y="129.641149" style="fill: #0000ff; stroke: #0000ff"/>
    </g>
    <g clip-path="url(#p1edb94297c)">
     <use xlink:href="#C0_0_5a7d8e3962" x="84.411187" y="117.300903" style="fill: #0000ff; stroke: #0000ff"/>
    </g>
    <g clip-path="url(#p1edb94297c)">
     <use xlink:href="#C0_0_5a7d8e3962" x="113.930132" y="130.074041" style="fill: #ff0000; stroke: #ff0000"/>
    </g>
    <g clip-path="url(#p1edb94297c)">
     <use xlink:href="#C0_0_5a7d8e3962" x="106.02092" y="151.654993" style="fill: #ff0000; stroke: #ff0000"/>
    </g>
    <g clip-path="url(#p1edb94297c)">
     <use xlink:href="#C0_0_5a7d8e3962" x="111.081721" y="90.638115" style="fill: #ff0000; stroke: #ff0000"/>
    </g>
    <g clip-path="url(#p1edb94297c)">
     <use xlink:href="#C0_0_5a7d8e3962" x="103.080701" y="95.90365" style="fill: #0000ff; stroke: #0000ff"/>
    </g>
    <g clip-path="url(#p1edb94297c)">
     <use xlink:href="#C0_0_5a7d8e3962" x="103.850702" y="181.078125" style="fill: #0000ff; stroke: #0000ff"/>
    </g>
    <g clip-path="url(#p1edb94297c)">
     <use xlink:href="#C0_0_5a7d8e3962" x="134.874945" y="95.927461" style="fill: #ff0000; stroke: #ff0000"/>
    </g>
    <g clip-path="url(#p1edb94297c)">
     <use xlink:href="#C0_0_5a7d8e3962" x="67.696937" y="137.266012" style="fill: #0000ff; stroke: #0000ff"/>
    </g>
   </g>
   <g id="PathCollection_2">
    <path d="M 60.241818 151.707436 
L 66.241818 145.707436 
M 60.241818 145.707436 
L 66.241818 151.707436 
" clip-path="url(#p1edb94297c)" style="fill: #0000ff; stroke: #0000ff; stroke-width: 1.5"/>
    <path d="M 108.839294 106.767663 
L 114.839294 100.767663 
M 108.839294 100.767663 
L 114.839294 106.767663 
" clip-path="url(#p1edb94297c)" style="fill: #ff0000; stroke: #ff0000; stroke-width: 1.5"/>
    <path d="M 127.227307 120.652653 
L 133.227307 114.652653 
M 127.227307 114.652653 
L 133.227307 120.652653 
" clip-path="url(#p1edb94297c)" style="fill: #ff0000; stroke: #ff0000; stroke-width: 1.5"/>
    <path d="M 106.785704 106.413504 
L 112.785704 100.413504 
M 106.785704 100.413504 
L 112.785704 106.413504 
" clip-path="url(#p1edb94297c)" style="fill: #ff0000; stroke: #ff0000; stroke-width: 1.5"/>
    <path d="M 175.89468 140.467063 
L 181.89468 134.467063 
M 175.89468 134.467063 
L 181.89468 140.467063 
" clip-path="url(#p1edb94297c)" style="fill: #ff0000; stroke: #ff0000; stroke-width: 1.5"/>
    <path d="M 135.160101 106.930196 
L 141.160101 100.930196 
M 135.160101 100.930196 
L 141.160101 106.930196 
" clip-path="url(#p1edb94297c)" style="fill: #ff0000; stroke: #ff0000; stroke-width: 1.5"/>
    <path d="M 104.300115 89.641907 
L 110.300115 83.641907 
M 104.300115 83.641907 
L 110.300115 89.641907 
" clip-path="url(#p1edb94297c)" style="fill: #ff0000; stroke: #ff0000; stroke-width: 1.5"/>
    <path d="M 79.182606 93.676633 
L 85.182606 87.676633 
M 79.182606 87.676633 
L 85.182606 93.676633 
" clip-path="url(#p1edb94297c)" style="fill: #0000ff; stroke: #0000ff; stroke-width: 1.5"/>
    <path d="M 76.862844 108.080405 
L 82.862844 102.080405 
M 76.862844 102.080405 
L 82.862844 108.080405 
" clip-path="url(#p1edb94297c)" style="fill: #0000ff; stroke: #0000ff; stroke-width: 1.5"/>
    <path d="M 119.307723 98.317223 
L 125.307723 92.317223 
M 119.307723 92.317223 
L 125.307723 98.317223 
" clip-path="url(#p1edb94297c)" style="fill: #ff0000; stroke: #ff0000; stroke-width: 1.5"/>
    <path d="M 145.86997 80.765752 
L 151.86997 74.765752 
M 145.86997 74.765752 
L 151.86997 80.765752 
" clip-path="url(#p1edb94297c)" style="fill: #ff0000; stroke: #ff0000; stroke-width: 1.5"/>
    <path d="M 70.04265 146.824057 
L 76.04265 140.824057 
M 70.04265 140.824057 
L 76.04265 146.824057 
" clip-path="url(#p1edb94297c)" style="fill: #0000ff; stroke: #0000ff; stroke-width: 1.5"/>
    <path d="M 112.565029 120.06449 
L 118.565029 114.06449 
M 112.565029 114.06449 
L 118.565029 120.06449 
" clip-path="url(#p1edb94297c)" style="fill: #ff0000; stroke: #ff0000; stroke-width: 1.5"/>
    <path d="M 113.330233 96.464231 
L 119.330233 90.464231 
M 113.330233 90.464231 
L 119.330233 96.464231 
" clip-path="url(#p1edb94297c)" style="fill: #ff0000; stroke: #ff0000; stroke-width: 1.5"/>
    <path d="M 139.320374 160.231829 
L 145.320374 154.231829 
M 139.320374 154.231829 
L 145.320374 160.231829 
" clip-path="url(#p1edb94297c)" style="fill: #0000ff; stroke: #0000ff; stroke-width: 1.5"/>
    <path d="M 118.832607 72.517198 
L 124.832607 66.517198 
M 118.832607 66.517198 
L 124.832607 72.517198 
" clip-path="url(#p1edb94297c)" style="fill: #ff0000; stroke: #ff0000; stroke-width: 1.5"/>
    <path d="M 55.47775 133.890341 
L 61.47775 127.890341 
M 55.47775 127.890341 
L 61.47775 133.890341 
" clip-path="url(#p1edb94297c)" style="fill: #0000ff; stroke: #0000ff; stroke-width: 1.5"/>
    <path d="M 126.720518 56.426986 
L 132.720518 50.426986 
M 126.720518 50.426986 
L 132.720518 56.426986 
" clip-path="url(#p1edb94297c)" style="fill: #ff0000; stroke: #ff0000; stroke-width: 1.5"/>
    <path d="M 135.423939 89.274276 
L 141.423939 83.274276 
M 135.423939 83.274276 
L 141.423939 89.274276 
" clip-path="url(#p1edb94297c)" style="fill: #ff0000; stroke: #ff0000; stroke-width: 1.5"/>
    <path d="M 74.975374 82.239805 
L 80.975374 76.239805 
M 74.975374 76.239805 
L 80.975374 82.239805 
" clip-path="url(#p1edb94297c)" style="fill: #ff0000; stroke: #ff0000; stroke-width: 1.5"/>
   </g>
   <g id="matplotlib.axis_1">
    <g id="xtick_1">
     <g id="line2d_1">
      <defs>
       <path id="m45e7310e81" d="M 0 0 
L 0 3.5 
" style="stroke: #000000; stroke-width: 0.8"/>
      </defs>
      <g>
       <use xlink:href="#m45e7310e81" x="78.632736" y="188.638125" style="stroke: #000000; stroke-width: 0.8"/>
      </g>
     </g>
     <g id="text_1">
      <!-- 0 -->
      <g transform="translate(75.451486 203.236563) scale(0.1 -0.1)">
       <defs>
        <path id="DejaVuSans-30" d="M 2034 4250 
Q 1547 4250 1301 3770 
Q 1056 3291 1056 2328 
Q 1056 1369 1301 889 
Q 1547 409 2034 409 
Q 2525 409 2770 889 
Q 3016 1369 3016 2328 
Q 3016 3291 2770 3770 
Q 2525 4250 2034 4250 
z
M 2034 4750 
Q 2819 4750 3233 4129 
Q 3647 3509 3647 2328 
Q 3647 1150 3233 529 
Q 2819 -91 2034 -91 
Q 1250 -91 836 529 
Q 422 1150 422 2328 
Q 422 3509 836 4129 
Q 1250 4750 2034 4750 
z
" transform="scale(0.015625)"/>
       </defs>
       <use xlink:href="#DejaVuSans-30"/>
      </g>
     </g>
    </g>
    <g id="xtick_2">
     <g id="line2d_2">
      <g>
       <use xlink:href="#m45e7310e81" x="136.912709" y="188.638125" style="stroke: #000000; stroke-width: 0.8"/>
      </g>
     </g>
     <g id="text_2">
      <!-- 2 -->
      <g transform="translate(133.731459 203.236563) scale(0.1 -0.1)">
       <defs>
        <path id="DejaVuSans-32" d="M 1228 531 
L 3431 531 
L 3431 0 
L 469 0 
L 469 531 
Q 828 903 1448 1529 
Q 2069 2156 2228 2338 
Q 2531 2678 2651 2914 
Q 2772 3150 2772 3378 
Q 2772 3750 2511 3984 
Q 2250 4219 1831 4219 
Q 1534 4219 1204 4116 
Q 875 4013 500 3803 
L 500 4441 
Q 881 4594 1212 4672 
Q 1544 4750 1819 4750 
Q 2544 4750 2975 4387 
Q 3406 4025 3406 3419 
Q 3406 3131 3298 2873 
Q 3191 2616 2906 2266 
Q 2828 2175 2409 1742 
Q 1991 1309 1228 531 
z
" transform="scale(0.015625)"/>
       </defs>
       <use xlink:href="#DejaVuSans-32"/>
      </g>
     </g>
    </g>
    <g id="xtick_3">
     <g id="line2d_3">
      <g>
       <use xlink:href="#m45e7310e81" x="195.192683" y="188.638125" style="stroke: #000000; stroke-width: 0.8"/>
      </g>
     </g>
     <g id="text_3">
      <!-- 4 -->
      <g transform="translate(192.011433 203.236563) scale(0.1 -0.1)">
       <defs>
        <path id="DejaVuSans-34" d="M 2419 4116 
L 825 1625 
L 2419 1625 
L 2419 4116 
z
M 2253 4666 
L 3047 4666 
L 3047 1625 
L 3713 1625 
L 3713 1100 
L 3047 1100 
L 3047 0 
L 2419 0 
L 2419 1100 
L 313 1100 
L 313 1709 
L 2253 4666 
z
" transform="scale(0.015625)"/>
       </defs>
       <use xlink:href="#DejaVuSans-34"/>
      </g>
     </g>
    </g>
   </g>
   <g id="matplotlib.axis_2">
    <g id="ytick_1">
     <g id="line2d_4">
      <defs>
       <path id="m85b1e74324" d="M 0 0 
L -3.5 0 
" style="stroke: #000000; stroke-width: 0.8"/>
      </defs>
      <g>
       <use xlink:href="#m85b1e74324" x="28.942187" y="173.133104" style="stroke: #000000; stroke-width: 0.8"/>
      </g>
     </g>
     <g id="text_4">
      <!-- −2 -->
      <g transform="translate(7.2 176.932322) scale(0.1 -0.1)">
       <defs>
        <path id="DejaVuSans-2212" d="M 678 2272 
L 4684 2272 
L 4684 1741 
L 678 1741 
L 678 2272 
z
" transform="scale(0.015625)"/>
       </defs>
       <use xlink:href="#DejaVuSans-2212"/>
       <use xlink:href="#DejaVuSans-32" x="83.789062"/>
      </g>
     </g>
    </g>
    <g id="ytick_2">
     <g id="line2d_5">
      <g>
       <use xlink:href="#m85b1e74324" x="28.942187" y="146.784839" style="stroke: #000000; stroke-width: 0.8"/>
      </g>
     </g>
     <g id="text_5">
      <!-- −1 -->
      <g transform="translate(7.2 150.584058) scale(0.1 -0.1)">
       <defs>
        <path id="DejaVuSans-31" d="M 794 531 
L 1825 531 
L 1825 4091 
L 703 3866 
L 703 4441 
L 1819 4666 
L 2450 4666 
L 2450 531 
L 3481 531 
L 3481 0 
L 794 0 
L 794 531 
z
" transform="scale(0.015625)"/>
       </defs>
       <use xlink:href="#DejaVuSans-2212"/>
       <use xlink:href="#DejaVuSans-31" x="83.789062"/>
      </g>
     </g>
    </g>
    <g id="ytick_3">
     <g id="line2d_6">
      <g>
       <use xlink:href="#m85b1e74324" x="28.942187" y="120.436574" style="stroke: #000000; stroke-width: 0.8"/>
      </g>
     </g>
     <g id="text_6">
      <!-- 0 -->
      <g transform="translate(15.579687 124.235793) scale(0.1 -0.1)">
       <use xlink:href="#DejaVuSans-30"/>
      </g>
     </g>
    </g>
    <g id="ytick_4">
     <g id="line2d_7">
      <g>
       <use xlink:href="#m85b1e74324" x="28.942187" y="94.08831" style="stroke: #000000; stroke-width: 0.8"/>
      </g>
     </g>
     <g id="text_7">
      <!-- 1 -->
      <g transform="translate(15.579687 97.887528) scale(0.1 -0.1)">
       <use xlink:href="#DejaVuSans-31"/>
      </g>
     </g>
    </g>
    <g id="ytick_5">
     <g id="line2d_8">
      <g>
       <use xlink:href="#m85b1e74324" x="28.942187" y="67.740045" style="stroke: #000000; stroke-width: 0.8"/>
      </g>
     </g>
     <g id="text_8">
      <!-- 2 -->
      <g transform="translate(15.579687 71.539264) scale(0.1 -0.1)">
       <use xlink:href="#DejaVuSans-32"/>
      </g>
     </g>
    </g>
    <g id="ytick_6">
     <g id="line2d_9">
      <g>
       <use xlink:href="#m85b1e74324" x="28.942187" y="41.39178" style="stroke: #000000; stroke-width: 0.8"/>
      </g>
     </g>
     <g id="text_9">
      <!-- 3 -->
      <g transform="translate(15.579687 45.190999) scale(0.1 -0.1)">
       <defs>
        <path id="DejaVuSans-33" d="M 2597 2516 
Q 3050 2419 3304 2112 
Q 3559 1806 3559 1356 
Q 3559 666 3084 287 
Q 2609 -91 1734 -91 
Q 1441 -91 1130 -33 
Q 819 25 488 141 
L 488 750 
Q 750 597 1062 519 
Q 1375 441 1716 441 
Q 2309 441 2620 675 
Q 2931 909 2931 1356 
Q 2931 1769 2642 2001 
Q 2353 2234 1838 2234 
L 1294 2234 
L 1294 2753 
L 1863 2753 
Q 2328 2753 2575 2939 
Q 2822 3125 2822 3475 
Q 2822 3834 2567 4026 
Q 2313 4219 1838 4219 
Q 1578 4219 1281 4162 
Q 984 4106 628 3988 
L 628 4550 
Q 988 4650 1302 4700 
Q 1616 4750 1894 4750 
Q 2613 4750 3031 4423 
Q 3450 4097 3450 3541 
Q 3450 3153 3228 2886 
Q 3006 2619 2597 2516 
z
" transform="scale(0.015625)"/>
       </defs>
       <use xlink:href="#DejaVuSans-33"/>
      </g>
     </g>
    </g>
   </g>
   <g id="patch_3">
    <path d="M 28.942187 188.638125 
L 28.942187 22.318125 
" style="fill: none; stroke: #000000; stroke-width: 0.8; stroke-linejoin: miter; stroke-linecap: square"/>
   </g>
   <g id="patch_4">
    <path d="M 196.342187 188.638125 
L 196.342187 22.318125 
" style="fill: none; stroke: #000000; stroke-width: 0.8; stroke-linejoin: miter; stroke-linecap: square"/>
   </g>
   <g id="patch_5">
    <path d="M 28.942188 188.638125 
L 196.342188 188.638125 
" style="fill: none; stroke: #000000; stroke-width: 0.8; stroke-linejoin: miter; stroke-linecap: square"/>
   </g>
   <g id="patch_6">
    <path d="M 28.942188 22.318125 
L 196.342188 22.318125 
" style="fill: none; stroke: #000000; stroke-width: 0.8; stroke-linejoin: miter; stroke-linecap: square"/>
   </g>
   <g id="text_10">
    <!-- Training + testing data -->
    <g transform="translate(43.9075 16.318125) scale(0.12 -0.12)">
     <defs>
      <path id="DejaVuSans-54" d="M -19 4666 
L 3928 4666 
L 3928 4134 
L 2272 4134 
L 2272 0 
L 1638 0 
L 1638 4134 
L -19 4134 
L -19 4666 
z
" transform="scale(0.015625)"/>
      <path id="DejaVuSans-72" d="M 2631 2963 
Q 2534 3019 2420 3045 
Q 2306 3072 2169 3072 
Q 1681 3072 1420 2755 
Q 1159 2438 1159 1844 
L 1159 0 
L 581 0 
L 581 3500 
L 1159 3500 
L 1159 2956 
Q 1341 3275 1631 3429 
Q 1922 3584 2338 3584 
Q 2397 3584 2469 3576 
Q 2541 3569 2628 3553 
L 2631 2963 
z
" transform="scale(0.015625)"/>
      <path id="DejaVuSans-61" d="M 2194 1759 
Q 1497 1759 1228 1600 
Q 959 1441 959 1056 
Q 959 750 1161 570 
Q 1363 391 1709 391 
Q 2188 391 2477 730 
Q 2766 1069 2766 1631 
L 2766 1759 
L 2194 1759 
z
M 3341 1997 
L 3341 0 
L 2766 0 
L 2766 531 
Q 2569 213 2275 61 
Q 1981 -91 1556 -91 
Q 1019 -91 701 211 
Q 384 513 384 1019 
Q 384 1609 779 1909 
Q 1175 2209 1959 2209 
L 2766 2209 
L 2766 2266 
Q 2766 2663 2505 2880 
Q 2244 3097 1772 3097 
Q 1472 3097 1187 3025 
Q 903 2953 641 2809 
L 641 3341 
Q 956 3463 1253 3523 
Q 1550 3584 1831 3584 
Q 2591 3584 2966 3190 
Q 3341 2797 3341 1997 
z
" transform="scale(0.015625)"/>
      <path id="DejaVuSans-69" d="M 603 3500 
L 1178 3500 
L 1178 0 
L 603 0 
L 603 3500 
z
M 603 4863 
L 1178 4863 
L 1178 4134 
L 603 4134 
L 603 4863 
z
" transform="scale(0.015625)"/>
      <path id="DejaVuSans-6e" d="M 3513 2113 
L 3513 0 
L 2938 0 
L 2938 2094 
Q 2938 2591 2744 2837 
Q 2550 3084 2163 3084 
Q 1697 3084 1428 2787 
Q 1159 2491 1159 1978 
L 1159 0 
L 581 0 
L 581 3500 
L 1159 3500 
L 1159 2956 
Q 1366 3272 1645 3428 
Q 1925 3584 2291 3584 
Q 2894 3584 3203 3211 
Q 3513 2838 3513 2113 
z
" transform="scale(0.015625)"/>
      <path id="DejaVuSans-67" d="M 2906 1791 
Q 2906 2416 2648 2759 
Q 2391 3103 1925 3103 
Q 1463 3103 1205 2759 
Q 947 2416 947 1791 
Q 947 1169 1205 825 
Q 1463 481 1925 481 
Q 2391 481 2648 825 
Q 2906 1169 2906 1791 
z
M 3481 434 
Q 3481 -459 3084 -895 
Q 2688 -1331 1869 -1331 
Q 1566 -1331 1297 -1286 
Q 1028 -1241 775 -1147 
L 775 -588 
Q 1028 -725 1275 -790 
Q 1522 -856 1778 -856 
Q 2344 -856 2625 -561 
Q 2906 -266 2906 331 
L 2906 616 
Q 2728 306 2450 153 
Q 2172 0 1784 0 
Q 1141 0 747 490 
Q 353 981 353 1791 
Q 353 2603 747 3093 
Q 1141 3584 1784 3584 
Q 2172 3584 2450 3431 
Q 2728 3278 2906 2969 
L 2906 3500 
L 3481 3500 
L 3481 434 
z
" transform="scale(0.015625)"/>
      <path id="DejaVuSans-20" transform="scale(0.015625)"/>
      <path id="DejaVuSans-2b" d="M 2944 4013 
L 2944 2272 
L 4684 2272 
L 4684 1741 
L 2944 1741 
L 2944 0 
L 2419 0 
L 2419 1741 
L 678 1741 
L 678 2272 
L 2419 2272 
L 2419 4013 
L 2944 4013 
z
" transform="scale(0.015625)"/>
      <path id="DejaVuSans-74" d="M 1172 4494 
L 1172 3500 
L 2356 3500 
L 2356 3053 
L 1172 3053 
L 1172 1153 
Q 1172 725 1289 603 
Q 1406 481 1766 481 
L 2356 481 
L 2356 0 
L 1766 0 
Q 1100 0 847 248 
Q 594 497 594 1153 
L 594 3053 
L 172 3053 
L 172 3500 
L 594 3500 
L 594 4494 
L 1172 4494 
z
" transform="scale(0.015625)"/>
      <path id="DejaVuSans-65" d="M 3597 1894 
L 3597 1613 
L 953 1613 
Q 991 1019 1311 708 
Q 1631 397 2203 397 
Q 2534 397 2845 478 
Q 3156 559 3463 722 
L 3463 178 
Q 3153 47 2828 -22 
Q 2503 -91 2169 -91 
Q 1331 -91 842 396 
Q 353 884 353 1716 
Q 353 2575 817 3079 
Q 1281 3584 2069 3584 
Q 2775 3584 3186 3129 
Q 3597 2675 3597 1894 
z
M 3022 2063 
Q 3016 2534 2758 2815 
Q 2500 3097 2075 3097 
Q 1594 3097 1305 2825 
Q 1016 2553 972 2059 
L 3022 2063 
z
" transform="scale(0.015625)"/>
      <path id="DejaVuSans-73" d="M 2834 3397 
L 2834 2853 
Q 2591 2978 2328 3040 
Q 2066 3103 1784 3103 
Q 1356 3103 1142 2972 
Q 928 2841 928 2578 
Q 928 2378 1081 2264 
Q 1234 2150 1697 2047 
L 1894 2003 
Q 2506 1872 2764 1633 
Q 3022 1394 3022 966 
Q 3022 478 2636 193 
Q 2250 -91 1575 -91 
Q 1294 -91 989 -36 
Q 684 19 347 128 
L 347 722 
Q 666 556 975 473 
Q 1284 391 1588 391 
Q 1994 391 2212 530 
Q 2431 669 2431 922 
Q 2431 1156 2273 1281 
Q 2116 1406 1581 1522 
L 1381 1569 
Q 847 1681 609 1914 
Q 372 2147 372 2553 
Q 372 3047 722 3315 
Q 1072 3584 1716 3584 
Q 2034 3584 2315 3537 
Q 2597 3491 2834 3397 
z
" transform="scale(0.015625)"/>
      <path id="DejaVuSans-64" d="M 2906 2969 
L 2906 4863 
L 3481 4863 
L 3481 0 
L 2906 0 
L 2906 525 
Q 2725 213 2448 61 
Q 2172 -91 1784 -91 
Q 1150 -91 751 415 
Q 353 922 353 1747 
Q 353 2572 751 3078 
Q 1150 3584 1784 3584 
Q 2172 3584 2448 3432 
Q 2725 3281 2906 2969 
z
M 947 1747 
Q 947 1113 1208 752 
Q 1469 391 1925 391 
Q 2381 391 2643 752 
Q 2906 1113 2906 1747 
Q 2906 2381 2643 2742 
Q 2381 3103 1925 3103 
Q 1469 3103 1208 2742 
Q 947 2381 947 1747 
z
" transform="scale(0.015625)"/>
     </defs>
     <use xlink:href="#DejaVuSans-54"/>
     <use xlink:href="#DejaVuSans-72" x="46.333984"/>
     <use xlink:href="#DejaVuSans-61" x="87.447266"/>
     <use xlink:href="#DejaVuSans-69" x="148.726562"/>
     <use xlink:href="#DejaVuSans-6e" x="176.509766"/>
     <use xlink:href="#DejaVuSans-69" x="239.888672"/>
     <use xlink:href="#DejaVuSans-6e" x="267.671875"/>
     <use xlink:href="#DejaVuSans-67" x="331.050781"/>
     <use xlink:href="#DejaVuSans-20" x="394.527344"/>
     <use xlink:href="#DejaVuSans-2b" x="426.314453"/>
     <use xlink:href="#DejaVuSans-20" x="510.103516"/>
     <use xlink:href="#DejaVuSans-74" x="541.890625"/>
     <use xlink:href="#DejaVuSans-65" x="581.099609"/>
     <use xlink:href="#DejaVuSans-73" x="642.623047"/>
     <use xlink:href="#DejaVuSans-74" x="694.722656"/>
     <use xlink:href="#DejaVuSans-69" x="733.931641"/>
     <use xlink:href="#DejaVuSans-6e" x="761.714844"/>
     <use xlink:href="#DejaVuSans-67" x="825.09375"/>
     <use xlink:href="#DejaVuSans-20" x="888.570312"/>
     <use xlink:href="#DejaVuSans-64" x="920.357422"/>
     <use xlink:href="#DejaVuSans-61" x="983.833984"/>
     <use xlink:href="#DejaVuSans-74" x="1045.113281"/>
     <use xlink:href="#DejaVuSans-61" x="1084.322266"/>
    </g>
   </g>
  </g>
 </g>
 <defs>
  <clipPath id="p1edb94297c">
   <rect x="28.942187" y="22.318125" width="167.4" height="166.32"/>
  </clipPath>
 </defs>
</svg>